<svg width="512" height="512" viewBox="0 0 512 512" fill="none" xmlns="http://www.w3.org/2000/svg">
<path d="M493.048 2.92922C489.144 -0.975754 482.811 -0.975754 478.906 2.92922L317.499 164.337H240.672C227.915 164.337 215.781 159.513 206.506 150.754C196.597 141.395 190.914 128.21 190.914 114.579V100.059C190.914 86.3326 186.616 73.2707 178.672 62.3927L223.988 17.0761C227.893 13.1711 227.893 6.83919 223.988 2.93322C220.083 -0.971754 213.751 -0.971754 209.845 2.93322L26.3299 186.552C19.6599 193.245 15.9989 202.135 16.0229 211.585C16.0469 221.035 19.7529 229.905 26.4579 236.563L273.264 481.681C292.95 501.232 319.071 511.999 346.815 511.999H448.913C468.395 511.999 484.245 496.148 484.245 476.667V446C484.245 407.397 461.384 372.476 426.006 357.034L387.897 340.403C372.094 333.506 361.151 319.205 358.624 302.149L339.472 172.872C339.38 172.254 339.233 171.657 339.037 171.084L493.048 17.0711C496.953 13.1661 496.953 6.83419 493.048 2.92922ZM379.896 358.732L418.005 375.365C443.001 386.275 460.114 409.436 463.583 436.001H358.467C347.394 436.001 336.632 431.433 328.939 423.467L242.21 333.655C238.373 329.681 232.042 329.572 228.07 333.408C224.097 337.244 223.987 343.575 227.823 347.548L314.553 437.36C325.993 449.206 341.998 456.001 358.467 456.001H464.245V476.668C464.245 485.122 457.367 492 448.913 492H346.815C324.388 492 303.272 483.296 287.358 467.492L40.5518 222.374C37.6418 219.484 36.0338 215.634 36.0238 211.534C36.0128 207.433 37.6018 203.576 40.4968 200.671L63.6006 177.488L165.319 282.821C169.156 286.793 175.486 286.904 179.459 283.068C183.432 279.232 183.542 272.901 179.706 268.928L77.7325 163.332L164.282 76.7826C168.603 83.6996 170.915 91.7015 170.915 100.059V114.578C170.915 133.687 178.883 152.172 192.776 165.293C205.777 177.573 222.788 184.336 240.673 184.336H320.953L325.348 214.003H274.58C269.057 214.003 264.58 218.48 264.58 224.002C264.58 229.525 269.057 234.002 274.58 234.002H328.31L332.704 263.669H286.58C281.057 263.669 276.58 268.146 276.58 273.669C276.58 279.192 281.057 283.669 286.58 283.669H335.667L338.839 305.079C339.255 307.889 339.84 310.643 340.574 313.336H297.079C291.556 313.336 287.079 317.813 287.079 323.336C287.079 328.859 291.556 333.336 297.079 333.336H349.607C356.887 344.361 367.286 353.228 379.896 358.732Z" fill="#D6FB00"/>
<path d="M203.76 298.24C201.13 298.24 198.55 299.31 196.69 301.17C194.83 303.03 193.76 305.61 193.76 308.24C193.76 310.87 194.83 313.45 196.69 315.31C198.55 317.17 201.13 318.24 203.76 318.24C206.4 318.24 208.97 317.17 210.83 315.31C212.7 313.45 213.76 310.87 213.76 308.24C213.76 305.61 212.7 303.03 210.83 301.17C208.97 299.31 206.4 298.24 203.76 298.24Z" fill="#D6FB00"/>
</svg>
